<?xml version="1.0" encoding="UTF-8" standalone="no"?>
<svg
   xmlns:dc="http://purl.org/dc/elements/1.1/"
   xmlns:cc="http://creativecommons.org/ns#"
   xmlns:rdf="http://www.w3.org/1999/02/22-rdf-syntax-ns#"
   xmlns:svg="http://www.w3.org/2000/svg"
   xmlns="http://www.w3.org/2000/svg"
   xmlns:sodipodi="http://sodipodi.sourceforge.net/DTD/sodipodi-0.dtd"
   xmlns:inkscape="http://www.inkscape.org/namespaces/inkscape"
   width="800"
   height="500"
   viewBox="0 0 61.68192 38.5512"
   version="1.1"
   id="svg12"
   sodipodi:docname="batman.svg"
   inkscape:version="0.92.2 (5c3e80d, 2017-08-06)">
  <metadata
     id="metadata18">
    <rdf:RDF>
      <cc:Work
         rdf:about="">
        <dc:format>image/svg+xml</dc:format>
        <dc:type
           rdf:resource="http://purl.org/dc/dcmitype/StillImage" />
        <dc:title></dc:title>
      </cc:Work>
    </rdf:RDF>
  </metadata>
  <defs
     id="defs16" />
  <sodipodi:namedview
     pagecolor="#ffffff"
     bordercolor="#666666"
     borderopacity="1"
     objecttolerance="10"
     gridtolerance="10"
     guidetolerance="10"
     inkscape:pageopacity="0"
     inkscape:pageshadow="2"
     inkscape:window-width="1366"
     inkscape:window-height="705"
     id="namedview14"
     showgrid="false"
     inkscape:zoom="0.47785521"
     inkscape:cx="-230.28586"
     inkscape:cy="391.43663"
     inkscape:window-x="-8"
     inkscape:window-y="-8"
     inkscape:window-maximized="1"
     inkscape:current-layer="g4540" />
  <g
     id="g10"
     style="clip-rule:evenodd;fill-rule:evenodd"
     transform="translate(0,-154.2048)">
    <g
       id="g4540"
       transform="translate(0.4732823,0.33023)"
       style="fill:#000000">
      <path
         inkscape:connector-curvature="0"
         id="path4"
         d="m 30.367524,154.91497 c -16.185308,0 -29.3896501,8.19399 -29.3896501,18.24001 0,10.03647 13.2043421,18.23039 29.3896501,18.23039 16.18565,0 29.389957,-8.19424 29.389957,-18.23039 0,-10.04602 -13.204307,-18.24001 -29.389957,-18.24001 z m 0,1.5792 c 15.319721,0 27.81541,7.48532 27.81541,16.66106 0,9.16533 -12.495689,16.65065 -27.81541,16.65065 -15.314783,0 -27.8104548,-7.48532 -27.8104548,-16.65065 0,-9.17574 12.4956708,-16.66106 27.8104548,-16.66106 z"
         style="fill:#ffffff;stroke-width:0.32837579;fill-opacity:0.08839779" />
      <path
         id="path8-3"
         d="m 30.519232,188.13052 c -1.624469,-7.70276 -6.685395,-10.57731 -8.49245,-4.56016 -3.882057,-7.54048 -12.4654695,-5.29836 -7.237727,2.06513 -0.986769,-0.42542 -1.928223,-0.88068 -2.803673,-1.37618 -2.8391368,-1.7463 -5.010686,-3.71524 -6.4933025,-5.77485 -1.0629517,-1.66489 -1.6399085,-3.46139 -1.6399085,-5.32916 0,-6.49335 6.933655,-12.07048 16.701519,-14.34807 0.146432,-0.0249 0.298505,-0.0509 0.450529,-0.0759 -7.440011,9.86408 3.08213,16.74221 5.010356,8.09282 l 0.830133,-8.00155 1.670114,2.14102 h 4.094519 l 1.664866,-2.14102 0.835062,8.00155 c 1.918372,8.62906 12.394872,1.80669 5.061587,-8.02188 9.778046,2.28254 16.711371,7.86002 16.711371,14.35298 0,4.9703 -4.073833,9.40828 -10.379632,12.23757 4.873756,-7.16585 -3.568456,-9.2819 -7.404545,-1.82215 -1.806718,-6.01751 -6.944168,-3.06739 -8.578823,4.5598 z"
         inkscape:connector-curvature="0"
         style="fill:#ffffff;stroke-width:0.32837579;fill-opacity:0.08839779" />
    </g>
  </g>
</svg>
