<?xml version="1.0" encoding="UTF-8" standalone="no"?>
<!-- Created with Inkscape (http://www.inkscape.org/) -->

<svg
   xmlns:dc="http://purl.org/dc/elements/1.1/"
   xmlns:cc="http://creativecommons.org/ns#"
   xmlns:rdf="http://www.w3.org/1999/02/22-rdf-syntax-ns#"
   xmlns:svg="http://www.w3.org/2000/svg"
   xmlns="http://www.w3.org/2000/svg"
   xmlns:sodipodi="http://sodipodi.sourceforge.net/DTD/sodipodi-0.dtd"
   xmlns:inkscape="http://www.inkscape.org/namespaces/inkscape"
   width="1800"
   height="410"
   viewBox="0 0 476.24999 108.47918"
   version="1.1"
   id="svg8"
   inkscape:version="0.92.2 (5c3e80d, 2017-08-06)"
   sodipodi:docname="skyline.svg">
  <defs
     id="defs2">
    <clipPath
       id="clipPath839"
       clipPathUnits="userSpaceOnUse">
      <path
         inkscape:connector-curvature="0"
         id="path837"
         d="M 0,800 H 800 V 0 H 0 Z" />
    </clipPath>
    <clipPath
       id="clipPath1211"
       clipPathUnits="userSpaceOnUse">
      <path
         inkscape:connector-curvature="0"
         id="path1209"
         d="M 0,800 H 800 V 0 H 0 Z" />
    </clipPath>
    <clipPath
       id="clipPath1219"
       clipPathUnits="userSpaceOnUse">
      <path
         inkscape:connector-curvature="0"
         id="path1217"
         d="M 0,800 H 800 V 0 H 0 Z" />
    </clipPath>
    <clipPath
       id="clipPath1239"
       clipPathUnits="userSpaceOnUse">
      <path
         inkscape:connector-curvature="0"
         id="path1237"
         d="M 280.789,60.0762 H 519.211 V 37.0039 H 280.789 Z" />
    </clipPath>
  </defs>
  <sodipodi:namedview
     id="base"
     pagecolor="#ffffff"
     bordercolor="#666666"
     borderopacity="1.0"
     inkscape:pageopacity="0.0"
     inkscape:pageshadow="2"
     inkscape:zoom="0.49497476"
     inkscape:cx="385.90753"
     inkscape:cy="62.46691"
     inkscape:document-units="mm"
     inkscape:current-layer="g823"
     showgrid="false"
     units="px"
     inkscape:showpageshadow="false"
     borderlayer="true"
     inkscape:window-width="1366"
     inkscape:window-height="705"
     inkscape:window-x="-8"
     inkscape:window-y="-8"
     inkscape:window-maximized="1" />
  <metadata
     id="metadata5">
    <rdf:RDF>
      <cc:Work
         rdf:about="">
        <dc:format>image/svg+xml</dc:format>
        <dc:type
           rdf:resource="http://purl.org/dc/dcmitype/StillImage" />
        <dc:title />
      </cc:Work>
    </rdf:RDF>
  </metadata>
  <g
     inkscape:label="Layer 1"
     inkscape:groupmode="layer"
     id="layer1"
     transform="translate(0,-188.52081)">
    <g
       transform="matrix(0.35277777,0,0,-0.35277777,-167.56951,289.94444)"
       inkscape:label="36819-O0ZQDN"
       id="g823">
      <path
         inkscape:connector-curvature="0"
         id="path949"
         style="fill:#000000;fill-opacity:1;fill-rule:nonzero;stroke:none;stroke-width:2.33244491"
         d="m 1825.0002,-20.035986 h -1350 V 5.523959 h 1350 z" />
      <path
         inkscape:connector-curvature="0"
         id="path951"
         style="fill:#000000;fill-opacity:1;fill-rule:nonzero;stroke:none;stroke-width:1.28834629"
         d="M 541.91564,-0.10410587 H 500.68827 V 120.28215 h 41.22737 z" />
      <g
         transform="matrix(1.4754099,0,0,1.125,626.86458,-0.10399287)"
         id="g953"
         style="fill:#000000">
        <path
           inkscape:connector-curvature="0"
           id="path955"
           style="fill:#000000;fill-opacity:1;fill-rule:nonzero;stroke:none"
           d="M 0,0 V 159.639 L 20.257,122.511 V 0 Z" />
      </g>
      <g
         transform="matrix(1.4754099,0,0,1.125,747.71054,-0.10399287)"
         id="g957"
         style="fill:#000000">
        <path
           inkscape:connector-curvature="0"
           id="path959"
           style="fill:#000000;fill-opacity:1;fill-rule:nonzero;stroke:none"
           d="m 0,0 v 106.386 c 0,12.907 -10.468,23.375 -23.379,23.375 -12.905,0 -23.374,-10.468 -23.374,-23.375 V 0 Z" />
      </g>
      <path
         inkscape:connector-curvature="0"
         id="path961"
         style="fill:#000000;fill-opacity:1;fill-rule:nonzero;stroke:none;stroke-width:1.28834629"
         d="m 675.77516,-0.10410587 h -4.5959 V 113.32177 h 4.5959 z" />
      <path
         inkscape:connector-curvature="0"
         id="path963"
         style="fill:#000000;fill-opacity:1;fill-rule:nonzero;stroke:none;stroke-width:1.28834629"
         d="m 667.23696,-0.10410587 h -4.5959 V 49.206895 h 4.5959 z" />
      <path
         inkscape:connector-curvature="0"
         id="path965"
         style="fill:#000000;fill-opacity:1;fill-rule:nonzero;stroke:none;stroke-width:1.28834629"
         d="m 763.47057,-0.10410587 h -4.5959 V 49.206895 h 4.5959 z" />
      <path
         inkscape:connector-curvature="0"
         id="path967"
         style="fill:#000000;fill-opacity:1;fill-rule:nonzero;stroke:none;stroke-width:1.28834629"
         d="m 755.91942,-0.10410587 h -4.59885 V 113.32177 h 4.59885 z" />
      <path
         inkscape:connector-curvature="0"
         id="path969"
         style="fill:#000000;fill-opacity:1;fill-rule:nonzero;stroke:none;stroke-width:1.28834629"
         d="m 715.52271,131.09902 h -5.9164 v 36.82013 h 5.9164 z" />
      <path
         inkscape:connector-curvature="0"
         id="path971"
         style="fill:#000000;fill-opacity:1;fill-rule:nonzero;stroke:none;stroke-width:1.28834629"
         d="M 612.99942,-0.10410587 H 552.86318 V 56.631895 h 60.13624 z" />
      <path
         inkscape:connector-curvature="0"
         id="path973"
         style="fill:#000000;fill-opacity:1;fill-rule:nonzero;stroke:none;stroke-width:1.28834629"
         d="m 606.12253,46.14127 h -46.38246 v 72.86963 h 46.38246 z" />
      <path
         inkscape:connector-curvature="0"
         id="path975"
         style="fill:#000000;fill-opacity:1;fill-rule:nonzero;stroke:none;stroke-width:1.28834629"
         d="m 612.99942,119.01202 h -60.13624 v 3.73163 h 60.13624 z" />
      <path
         inkscape:connector-curvature="0"
         id="path977"
         style="fill:#000000;fill-opacity:1;fill-rule:nonzero;stroke:none;stroke-width:1.28834629"
         d="m 558.45647,51.119395 h -3.72984 V 119.9019 h 3.72984 z" />
      <path
         inkscape:connector-curvature="0"
         id="path979"
         style="fill:#000000;fill-opacity:1;fill-rule:nonzero;stroke:none;stroke-width:1.28834629"
         d="m 611.59483,51.119395 h -3.72688 V 119.9019 h 3.72688 z" />
      <g
         transform="matrix(1.4754099,0,0,1.125,599.24388,111.89898)"
         id="g981"
         style="fill:#000000">
        <path
           inkscape:connector-curvature="0"
           id="path983"
           style="fill:#000000;fill-opacity:1;fill-rule:nonzero;stroke:none"
           d="m 0,0 c 0,-12.3 -4.951,-22.275 -11.059,-22.275 -6.108,0 -11.058,9.975 -11.058,22.275 0,12.304 4.95,22.274 11.058,22.274 C -4.951,22.274 0,12.304 0,0" />
      </g>
      <path
         inkscape:connector-curvature="0"
         id="path985"
         style="fill:#000000;fill-opacity:1;fill-rule:nonzero;stroke:none;stroke-width:1.28834629"
         d="m 585.0286,130.5624 h -4.1946 v 22.21987 h 4.1946 z" />
      <path
         inkscape:connector-curvature="0"
         id="path987"
         style="fill:#000000;fill-opacity:1;fill-rule:nonzero;stroke:none;stroke-width:1.28834629"
         d="m 585.0286,150.28702 h -4.1946 v 22.7475 h 4.1946 z" />
      <g
         transform="matrix(1.4754099,0,0,1.125,580.83298,172.14634)"
         id="g989"
         style="fill:#000000">
        <path
           inkscape:connector-curvature="0"
           id="path991"
           style="fill:#000000;fill-opacity:1;fill-rule:nonzero;stroke:none"
           d="m 0,0 7.109,-6.003 v -6.159 L 0,-7.108 Z" />
      </g>
      <g
         transform="matrix(1.4754099,0,0,1.125,771.57146,146.58768)"
         id="g993"
         style="fill:#000000">
        <path
           inkscape:connector-curvature="0"
           id="path995"
           style="fill:#000000;fill-opacity:1;fill-rule:nonzero;stroke:none"
           d="m 0,0 c 0,6.679 5.414,12.093 12.094,12.093 6.68,0 12.094,-5.414 12.094,-12.093 0,-6.68 -5.414,-12.094 -12.094,-12.094 C 5.414,-12.094 0,-6.68 0,0" />
      </g>
      <g
         transform="matrix(1.4754099,0,0,1.125,800.77573,3.272132)"
         id="g997"
         style="fill:#000000">
        <path
           inkscape:connector-curvature="0"
           id="path999"
           style="fill:#000000;fill-opacity:1;fill-rule:nonzero;stroke:none"
           d="m 0,0 h -15.402 l 3.843,117.865 h 8.677 z" />
      </g>
      <path
         inkscape:connector-curvature="0"
         id="path1001"
         style="fill:#000000;fill-opacity:1;fill-rule:nonzero;stroke:none;stroke-width:1.28834629"
         d="m 801.67631,122.44215 h -24.52574 v 2.56725 h 24.52574 z" />
      <path
         inkscape:connector-curvature="0"
         id="path1003"
         style="fill:#000000;fill-opacity:1;fill-rule:nonzero;stroke:none;stroke-width:1.28834629"
         d="m 801.67631,117.5619 h -24.52574 v 2.56725 h 24.52574 z" />
      <path
         inkscape:connector-curvature="0"
         id="path1005"
         style="fill:#000000;fill-opacity:1;fill-rule:nonzero;stroke:none;stroke-width:1.28834629"
         d="m 798.5086,174.3204 h -18.19032 v 2.5695 h 18.19032 z" />
      <path
         inkscape:connector-curvature="0"
         id="path1007"
         style="fill:#000000;fill-opacity:1;fill-rule:nonzero;stroke:none;stroke-width:1.28834629"
         d="m 795.59615,159.10365 h -12.36393 v 15.21675 h 12.36393 z" />
      <path
         inkscape:connector-curvature="0"
         id="path1009"
         style="fill:#000000;fill-opacity:1;fill-rule:nonzero;stroke:none;stroke-width:1.28834629"
         d="m 791.19795,175.60515 h -3.56902 v 97.33838 h 3.56902 z" />
      <path
         inkscape:connector-curvature="0"
         id="path1011"
         style="fill:#000000;fill-opacity:1;fill-rule:nonzero;stroke:none;stroke-width:1.28834629"
         d="m 794.97205,175.60515 h -11.11721 v 9.24637 h 11.11721 z" />
      <path
         inkscape:connector-curvature="0"
         id="path1013"
         style="fill:#000000;fill-opacity:1;fill-rule:nonzero;stroke:none;stroke-width:1.28834629"
         d="m 793.2886,184.85152 h -7.75032 v 7.96163 h 7.75032 z" />
      <path
         inkscape:connector-curvature="0"
         id="path1015"
         style="fill:#000000;fill-opacity:1;fill-rule:nonzero;stroke:none;stroke-width:1.28834629"
         d="M 865.09091,-0.10410587 H 812.59729 V 55.691395 h 52.49362 z" />
      <path
         inkscape:connector-curvature="0"
         id="path1017"
         style="fill:#000000;fill-opacity:1;fill-rule:nonzero;stroke:none;stroke-width:1.28834629"
         d="m 848.60615,50.77852 h -30.5454 v 13.707 h 30.5454 z" />
      <path
         inkscape:connector-curvature="0"
         id="path1019"
         style="fill:#000000;fill-opacity:1;fill-rule:nonzero;stroke:none;stroke-width:1.28834629"
         d="M 851.09075,64.207645 H 814.4091 v 3.678751 h 36.68165 z" />
      <path
         inkscape:connector-curvature="0"
         id="path1021"
         style="fill:#000000;fill-opacity:1;fill-rule:nonzero;stroke:none;stroke-width:1.28834629"
         d="m 835.89107,67.051645 h -3.87296 v 11.698876 h 3.87296 z" />
      <path
         inkscape:connector-curvature="0"
         id="path1023"
         style="fill:#000000;fill-opacity:1;fill-rule:nonzero;stroke:none;stroke-width:1.28834629"
         d="m 841.73811,73.623896 h -7.78278 v 3.454875 h 7.78278 z" />
      <path
         inkscape:connector-curvature="0"
         id="path1025"
         style="fill:#000000;fill-opacity:1;fill-rule:nonzero;stroke:none;stroke-width:1.28834629"
         d="m 890.66566,16.242144 h -4.63722 v 26.327251 h 4.63722 z m -7.85804,0 h -4.6372 v 26.327251 h 4.6372 z m -7.8595,0 h -4.63721 v 26.327251 h 4.63721 z M 863.86926,-0.10410587 h 33.23951 V 50.77852 h -33.23951 z" />
      <path
         inkscape:connector-curvature="0"
         id="path1027"
         style="fill:#000000;fill-opacity:1;fill-rule:nonzero;stroke:none;stroke-width:1.28834629"
         d="m 875.46451,50.77852 h -4.63869 v 5.934375 h 4.63869 z" />
      <path
         inkscape:connector-curvature="0"
         id="path1029"
         style="fill:#000000;fill-opacity:1;fill-rule:nonzero;stroke:none;stroke-width:1.28834629"
         d="m 894.78944,50.77852 h -5.92673 v 4.912875 h 5.92673 z" />
      <path
         inkscape:connector-curvature="0"
         id="path1031"
         style="fill:#000000;fill-opacity:1;fill-rule:nonzero;stroke:none;stroke-width:1.28834629"
         d="m 995.08632,-0.10410587 h 52.49358 V 55.691395 h -52.49358 z" />
      <path
         inkscape:connector-curvature="0"
         id="path1033"
         style="fill:#000000;fill-opacity:1;fill-rule:nonzero;stroke:none;stroke-width:1.28834629"
         d="m 1011.5711,50.77852 h 30.5439 v 13.707 h -30.5439 z" />
      <path
         inkscape:connector-curvature="0"
         id="path1035"
         style="fill:#000000;fill-opacity:1;fill-rule:nonzero;stroke:none;stroke-width:1.28834629"
         d="m 1009.088,64.207645 h 36.6831 v 3.678751 h -36.6831 z" />
      <path
         inkscape:connector-curvature="0"
         id="path1037"
         style="fill:#000000;fill-opacity:1;fill-rule:nonzero;stroke:none;stroke-width:1.28834629"
         d="m 1024.2876,67.051645 h 3.8715 v 11.698876 h -3.8715 z" />
      <path
         inkscape:connector-curvature="0"
         id="path1039"
         style="fill:#000000;fill-opacity:1;fill-rule:nonzero;stroke:none;stroke-width:1.28834629"
         d="m 1018.4391,73.623896 h 7.7828 v 3.454875 h -7.7828 z" />
      <path
         inkscape:connector-curvature="0"
         id="path1041"
         style="fill:#000000;fill-opacity:1;fill-rule:nonzero;stroke:none;stroke-width:1.28834629"
         d="m 969.51009,42.569395 h 4.63721 V 16.242144 h -4.63721 z m 7.85804,0 h 4.63868 V 16.242144 h -4.63868 z m 7.86098,0 h 4.63721 V 16.242144 h -4.63721 z M 963.06846,-0.10410587 h 33.24098 V 50.77852 h -33.24098 z" />
      <path
         inkscape:connector-curvature="0"
         id="path1043"
         style="fill:#000000;fill-opacity:1;fill-rule:nonzero;stroke:none;stroke-width:1.28834629"
         d="m 984.71271,50.77852 h 4.64164 v 5.934375 h -4.64164 z" />
      <path
         inkscape:connector-curvature="0"
         id="path1045"
         style="fill:#000000;fill-opacity:1;fill-rule:nonzero;stroke:none;stroke-width:1.28834629"
         d="m 965.38927,50.77852 h 5.92524 v 4.912875 h -5.92524 z" />
      <path
         inkscape:connector-curvature="0"
         id="path1047"
         style="fill:#000000;fill-opacity:1;fill-rule:nonzero;stroke:none;stroke-width:1.28834629"
         d="m 953.53582,16.242144 h -7.21622 v 25.737751 h 7.21622 z m -12.62655,0 h -7.21328 v 25.737751 h 7.21328 z m -12.62361,0 h -7.21771 v 25.737751 h 7.21771 z m -12.62655,0 h -7.21476 v 25.737751 h 7.21476 z M 895.04615,-0.10410587 h 71.88787 V 50.77852 h -71.88787 z" />
      <g
         transform="matrix(1.4754099,0,0,1.125,953.09586,59.28982)"
         id="g1049"
         style="fill:#000000">
        <path
           inkscape:connector-curvature="0"
           id="path1051"
           style="fill:#000000;fill-opacity:1;fill-rule:nonzero;stroke:none"
           d="M 0,0 C -0.955,7.769 -7.879,13.796 -16.292,13.796 -24.706,13.796 -31.63,7.769 -32.586,0 Z" />
      </g>
      <path
         inkscape:connector-curvature="0"
         id="path1053"
         style="fill:#000000;fill-opacity:1;fill-rule:nonzero;stroke:none;stroke-width:1.28834629"
         d="m 961.00878,49.64227 h -63.90001 v 9.648 h 63.90001 z" />
      <path
         inkscape:connector-curvature="0"
         id="path1055"
         style="fill:#000000;fill-opacity:1;fill-rule:nonzero;stroke:none;stroke-width:1.28834629"
         d="m 904.81189,56.897395 h -2.65278 v 13.502251 h 2.65278 z" />
      <path
         inkscape:connector-curvature="0"
         id="path1057"
         style="fill:#000000;fill-opacity:1;fill-rule:nonzero;stroke:none;stroke-width:1.28834629"
         d="m 903.48402,64.288645 h -8.82885 v 4.228876 h 8.82885 z" />
      <path
         inkscape:connector-curvature="0"
         id="path1059"
         style="fill:#000000;fill-opacity:1;fill-rule:nonzero;stroke:none;stroke-width:1.28834629"
         d="m 953.30271,56.897395 h 2.65426 v 13.502251 h -2.65426 z" />
      <path
         inkscape:connector-curvature="0"
         id="path1061"
         style="fill:#000000;fill-opacity:1;fill-rule:nonzero;stroke:none;stroke-width:1.28834629"
         d="m 954.63058,64.288645 h 8.82886 v 4.228876 h -8.82886 z" />
      <g
         transform="matrix(1.4754099,0,0,1.125,1098.9014,-0.10399287)"
         id="g1063"
         style="fill:#000000">
        <path
           inkscape:connector-curvature="0"
           id="path1065"
           style="fill:#000000;fill-opacity:1;fill-rule:nonzero;stroke:none"
           d="m 0,0 h -28.387 v 102.093 l 17.807,9.78 10.58,-9.78 z" />
      </g>
      <path
         inkscape:connector-curvature="0"
         id="path1067"
         style="fill:#000000;fill-opacity:1;fill-rule:nonzero;stroke:none;stroke-width:1.28834629"
         d="m 1158.0601,-0.10410587 h -51.5124 V 57.44752 h 51.5124 z" />
      <path
         inkscape:connector-curvature="0"
         id="path1069"
         style="fill:#000000;fill-opacity:1;fill-rule:nonzero;stroke:none;stroke-width:1.28834629"
         d="m 1165.3413,-0.10410587 h -16.9082 V 20.72527 h 16.9082 z" />
      <path
         inkscape:connector-curvature="0"
         id="path1071"
         style="fill:#000000;fill-opacity:1;fill-rule:nonzero;stroke:none;stroke-width:1.28834629"
         d="m 1141.6477,53.092645 h -34.6013 V 96.10365 h 34.6013 z" />
      <g
         transform="matrix(1.4754099,0,0,1.125,1110.4512,93.5238)"
         id="g1073"
         style="fill:#000000">
        <path
           inkscape:connector-curvature="0"
           id="path1075"
           style="fill:#000000;fill-opacity:1;fill-rule:nonzero;stroke:none"
           d="M 0,0 C 0,0 -3.526,17.282 11.637,18.515 L 14.81,6.347 18.866,4.585 V 0 Z" />
      </g>
      <path
         inkscape:connector-curvature="0"
         id="path1077"
         style="fill:#000000;fill-opacity:1;fill-rule:nonzero;stroke:none;stroke-width:1.28834629"
         d="m 1332.6233,54.930895 h -156.1486 v 5.742 h 156.1486 z" />
      <path
         inkscape:connector-curvature="0"
         id="path1079"
         style="fill:#000000;fill-opacity:1;fill-rule:nonzero;stroke:none;stroke-width:1.28834629"
         d="M 1327.9831,42.735895 H 1183.1775 V 54.92977 h 144.8056 z" />
      <path
         inkscape:connector-curvature="0"
         id="path1081"
         style="fill:#000000;fill-opacity:1;fill-rule:nonzero;stroke:none;stroke-width:1.28834629"
         d="m 1340.8678,40.79302 h -172.1169 v 8.0415 h 172.1169 z" />
      <path
         inkscape:connector-curvature="0"
         id="path1083"
         style="fill:#000000;fill-opacity:1;fill-rule:nonzero;stroke:none;stroke-width:1.28834629"
         d="M 1318.7071,7.808019 H 1304.794 V 32.95627 h 13.9131 z m -28.3425,0 h -13.9117 V 32.95627 h 13.9117 z m -28.3427,0 h -13.9161 V 32.95627 h 13.9161 z m -28.3411,0 h -13.9191 V 32.95627 h 13.9191 z m -28.3426,0 h -13.9191 V 32.95627 h 13.9191 z m -28.8635,-7.91212487 h 156.1486 V 40.79302 h -156.1486 z" />
      <path
         inkscape:connector-curvature="0"
         id="path1085"
         style="fill:#000000;fill-opacity:1;fill-rule:nonzero;stroke:none;stroke-width:1.28834629"
         d="m 1284.2682,59.581645 h -59.0253 v 4.212 h 59.0253 z" />
      <path
         inkscape:connector-curvature="0"
         id="path1087"
         style="fill:#000000;fill-opacity:1;fill-rule:nonzero;stroke:none;stroke-width:1.28834629"
         d="m 1238.3253,62.436895 h -8.2682 v 16.596001 h 8.2682 z" />
      <path
         inkscape:connector-curvature="0"
         id="path1089"
         style="fill:#000000;fill-opacity:1;fill-rule:nonzero;stroke:none;stroke-width:1.28834629"
         d="m 1278.6173,62.436895 h -8.2682 v 16.596001 h 8.2682 z" />
      <path
         inkscape:connector-curvature="0"
         id="path1091"
         style="fill:#000000;fill-opacity:1;fill-rule:nonzero;stroke:none;stroke-width:1.28834629"
         d="m 1266.3729,63.15352 h -23.338 v 8.300251 h 23.338 z" />
      <path
         inkscape:connector-curvature="0"
         id="path1093"
         style="fill:#000000;fill-opacity:1;fill-rule:nonzero;stroke:none;stroke-width:1.28834629"
         d="m 1264.4888,70.734896 h -4.708 v 8.298 h 4.708 z" />
      <path
         inkscape:connector-curvature="0"
         id="path1095"
         style="fill:#000000;fill-opacity:1;fill-rule:nonzero;stroke:none;stroke-width:1.28834629"
         d="m 1249.7333,70.734896 h -4.708 v 8.298 h 4.708 z" />
      <path
         inkscape:connector-curvature="0"
         id="path1097"
         style="fill:#000000;fill-opacity:1;fill-rule:nonzero;stroke:none;stroke-width:1.28834629"
         d="m 1257.5809,69.616646 h -5.0238 v 17.63775 h 5.0238 z" />
      <g
         transform="matrix(1.4754099,0,0,1.125,1394.7657,-0.10399287)"
         id="g1099"
         style="fill:#000000">
        <path
           inkscape:connector-curvature="0"
           id="path1101"
           style="fill:#000000;fill-opacity:1;fill-rule:nonzero;stroke:none"
           d="M 0,0 H -29.806 V 93.717 L 0,128.648 Z" />
      </g>
      <g
         transform="matrix(1.4754099,0,0,1.125,1412.9547,-0.10399287)"
         id="g1103"
         style="fill:#000000">
        <path
           inkscape:connector-curvature="0"
           id="path1105"
           style="fill:#000000;fill-opacity:1;fill-rule:nonzero;stroke:none"
           d="m 0,0 c 0,0 -23.285,116.544 21.425,116.544 l 1.859,-4.671 h 3.73 v -5.576 l 5.119,-0.933 V 0 Z" />
      </g>
      <path
         inkscape:connector-curvature="0"
         id="path1113"
         style="fill:#000000;fill-opacity:1;fill-rule:nonzero;stroke:none;stroke-width:1.39484251"
         d="m 1515.0033,0.09378213 h -37.7778 V 65.749266 h 37.7778 z" />
      <path
         inkscape:connector-curvature="0"
         id="path1121"
         style="fill:#000000;fill-opacity:1;fill-rule:nonzero;stroke:none;stroke-width:1.46830535"
         d="m 1551.3619,4.138053 h -2.6588 V 72.50485 h 2.6588 z m -5.0621,0 h -2.6632 V 72.50485 h 2.6632 z m -5.0681,0 h -2.6586 V 72.50485 h 2.6586 z m -5.0636,0 h -2.6617 V 72.50485 h 2.6617 z m -5.0666,0 h -2.6586 V 72.50485 h 2.6586 z m -7.3608,-6.746522 h 32.3219 v 78.574985 h -32.3219 z" />
      <g
         transform="matrix(1.4754099,0,0,1.125,1637.1345,4.125557)"
         id="g1135"
         style="fill:#000000">
        <path
           inkscape:connector-curvature="0"
           id="path1137"
           style="fill:#000000;fill-opacity:1;fill-rule:nonzero;stroke:none"
           d="M 0,0 H -14.801 V 82.245 L 1.955,102.072 Z" />
      </g>
      <path
         inkscape:connector-curvature="0"
         id="path1139"
         style="fill:#000000;fill-opacity:1;fill-rule:nonzero;stroke:none;stroke-width:1.28834629"
         d="m 1637.5932,104.66141 h -1.648 v 38.799 h 1.648 z" />
      <path
         inkscape:connector-curvature="0"
         id="path1141"
         style="fill:#000000;fill-opacity:1;fill-rule:nonzero;stroke:none;stroke-width:1.28834629"
         d="m 1603.4453,59.766177 h -4.1208 v 3.142125 h 4.1208 z m 0,-4.870125 h -4.1208 v 3.141 h 4.1208 z m 0,-4.869 h -4.1208 v 3.142125 h 4.1208 z m 0,-4.869 h -4.1208 v 3.142125 h 4.1208 z m 0,-4.870126 h -4.1208 v 3.142125 h 4.1208 z m 0,-4.870125 h -4.1208 v 3.142125 h 4.1208 z m 0,-4.870125 h -4.1208 v 3.141 h 4.1208 z m 0,-4.869 h -4.1208 v 3.141 h 4.1208 z m 0,-4.87125 h -4.1208 v 3.142125 h 4.1208 z m 0,-4.869 h -4.1208 v 3.141 h 4.1208 z m 0,-4.870125 h -4.1208 v 3.14325 h 4.1208 z m -6.5922,48.697876 h -4.1207 v 3.142125 h 4.1207 z m 0,-4.870125 h -4.1207 v 3.141 h 4.1207 z m 0,-4.869 h -4.1207 v 3.142125 h 4.1207 z m 0,-4.869 h -4.1207 v 3.142125 h 4.1207 z m 0,-4.870126 h -4.1207 v 3.142125 h 4.1207 z m 0,-4.870125 h -4.1207 v 3.142125 h 4.1207 z m 0,-4.870125 h -4.1207 v 3.141 h 4.1207 z m 0,-4.869 h -4.1207 v 3.141 h 4.1207 z m 0,-4.87125 h -4.1207 v 3.142125 h 4.1207 z m 0,-4.869 h -4.1207 v 3.141 h 4.1207 z m 0,-4.870125 h -4.1207 v 3.14325 h 4.1207 z m -6.5935,48.697876 h -4.1194 v 3.142125 h 4.1194 z m 0,-4.870125 h -4.1194 v 3.141 h 4.1194 z m 0,-4.869 h -4.1194 v 3.142125 h 4.1194 z m 0,-4.869 h -4.1194 v 3.142125 h 4.1194 z m 0,-4.870126 h -4.1194 v 3.142125 h 4.1194 z m 0,-4.870125 h -4.1194 v 3.142125 h 4.1194 z m 0,-4.870125 h -4.1194 v 3.141 h 4.1194 z m 0,-4.869 h -4.1194 v 3.141 h 4.1194 z m 0,-4.87125 h -4.1194 v 3.142125 h 4.1194 z m 0,-4.869 h -4.1194 v 3.141 h 4.1194 z m 0,-4.870125 h -4.1194 v 3.14325 h 4.1194 z m -6.5921,48.697876 h -4.1209 v 3.142125 h 4.1209 z m 0,-4.870125 h -4.1209 v 3.141 h 4.1209 z m 0,-4.869 h -4.1209 v 3.142125 h 4.1209 z m 0,-4.869 h -4.1209 v 3.142125 h 4.1209 z m 0,-4.870126 h -4.1209 v 3.142125 h 4.1209 z m 0,-4.870125 h -4.1209 v 3.142125 h 4.1209 z m 0,-4.870125 h -4.1209 v 3.141 h 4.1209 z m 0,-4.869 h -4.1209 v 3.141 h 4.1209 z m 0,-4.87125 h -4.1209 v 3.142125 h 4.1209 z m 0,-4.869 h -4.1209 v 3.141 h 4.1209 z m 0,-4.870125 h -4.1209 v 3.14325 h 4.1209 z m -6.5922,48.697876 h -4.1193 v 3.142125 h 4.1193 z m 0,-4.870125 h -4.1193 v 3.141 h 4.1193 z m 0,-4.869 h -4.1193 v 3.142125 h 4.1193 z m 0,-4.869 h -4.1193 v 3.142125 h 4.1193 z m 0,-4.870126 h -4.1193 v 3.142125 h 4.1193 z m 0,-4.870125 h -4.1193 v 3.142125 h 4.1193 z m 0,-4.870125 h -4.1193 v 3.141 h 4.1193 z m 0,-4.869 h -4.1193 v 3.141 h 4.1193 z m 0,-4.87125 h -4.1193 v 3.142125 h 4.1193 z m 0,-4.869 h -4.1193 v 3.141 h 4.1193 z m 0,-4.870125 h -4.1193 v 3.14325 h 4.1193 z m -6.5922,48.697876 h -4.1207 v 3.142125 h 4.1207 z m 0,-4.870125 h -4.1207 v 3.141 h 4.1207 z m 0,-4.869 h -4.1207 v 3.142125 h 4.1207 z m 0,-4.869 h -4.1207 v 3.142125 h 4.1207 z m 0,-4.870126 h -4.1207 v 3.142125 h 4.1207 z m 0,-4.870125 h -4.1207 v 3.142125 h 4.1207 z m 0,-4.870125 h -4.1207 v 3.141 h 4.1207 z m 0,-4.869 h -4.1207 v 3.141 h 4.1207 z m 0,-4.87125 h -4.1207 v 3.142125 h 4.1207 z m 0,-4.869 h -4.1207 v 3.141 h 4.1207 z m 0,-4.870125 h -4.1207 v 3.14325 h 4.1207 z m -7.8284,-10.20937483 h 44.4984 V 65.262927 h -44.4984 z" />
      <path
         inkscape:connector-curvature="0"
         id="path1159"
         style="fill:#000000;fill-opacity:1;fill-rule:nonzero;stroke:none;stroke-width:1.28834629"
         d="m 1692.6973,-5.9301109 h -46.9741 V 77.295141 h 46.9741 z" />
      <path
         inkscape:connector-curvature="0"
         id="path1173"
         style="fill:#000000;fill-opacity:1;fill-rule:nonzero;stroke:none;stroke-width:1.28834629"
         d="m 1737.6309,-3.132236 h -37.4311 v 93.254627 h 37.4311 z" />
      <path
         inkscape:connector-curvature="0"
         id="path1175"
         style="fill:#000000;fill-opacity:1;fill-rule:nonzero;stroke:none;stroke-width:1.28834629"
         d="m 1710.4082,80.502516 h -2.4316 v 28.523254 h 2.4316 z" />
      <path
         inkscape:connector-curvature="0"
         id="path1177"
         style="fill:#000000;fill-opacity:1;fill-rule:nonzero;stroke:none;stroke-width:1.28834629"
         d="m 1729.2535,80.502516 h -2.4329 v 28.523254 h 2.4329 z" />
      <path
         inkscape:connector-curvature="0"
         id="path1179"
         style="fill:#000000;fill-opacity:1;fill-rule:nonzero;stroke:none;stroke-width:1.28834629"
         d="m 1709.1939,100.50952 h -13.6402 v 6.0255 h 13.6402 z" />
      <path
         inkscape:connector-curvature="0"
         id="path1181"
         style="fill:#000000;fill-opacity:1;fill-rule:nonzero;stroke:none;stroke-width:1.28834629"
         d="m 1728.0364,94.76639 h -13.6402 v 6.02438 h 13.6402 z" />
      <path
         inkscape:connector-curvature="0"
         id="path1183"
         style="fill:#000000;fill-opacity:1;fill-rule:nonzero;stroke:none;stroke-width:1.28834629"
         d="m 1800.0895,97.87027 h -51.9168 v 3.03862 h 51.9168 z m 0,-5.34038 h -51.9168 v 3.03638 h 51.9168 z m 0,-5.340374 h -51.9168 v 3.036375 h 51.9168 z m 0,-5.3415 h -51.9168 v 3.0375 h 51.9168 z m 0,-5.3415 h -51.9168 v 3.036375 h 51.9168 z m 0,-5.33925 h -51.9168 v 3.03525 h 51.9168 z m 0,-5.34375 h -51.9168 v 3.038625 h 51.9168 z m 0,-5.340376 h -51.9168 v 3.037501 h 51.9168 z m 0,-5.340375 h -51.9168 v 3.0375 h 51.9168 z m 0,-5.340375 h -51.9168 v 3.0375 h 51.9168 z m 0,-5.3415 h -51.9168 v 3.038625 h 51.9168 z m 0,-5.3415 h -51.9168 v 3.0375 h 51.9168 z m 0,-5.340375 h -51.9168 v 3.036375 h 51.9168 z m 0,-5.340375 h -51.9168 v 3.036375 h 51.9168 z m 0,-5.342625 h -51.9168 v 3.0375 h 51.9168 z m 0,-5.340376 h -51.9168 v 3.037501 h 51.9168 z m 0,-5.340375 h -51.9168 v 3.0375 h 51.9168 z m 0,-5.3415 h -51.9168 v 3.036375 h 51.9168 z m -54.9413,-4.71375 h 57.1367 V 103.16114 h -57.1367 z" />
    </g>
  </g>
</svg>
